<svg xmlns="http://www.w3.org/2000/svg" pointer-events="none" class="leaflet-zoom-animated" width="1284" height="883"
     viewBox="-107 -74 1284 883" style="transform: translate3d(-107px, -74px, 0px) scale(1);">
    <g>
        <path class="leaflet-interactive" stroke="#201920" stroke-opacity="1" stroke-width="2" stroke-linecap="round"
              stroke-linejoin="round" fill="none"
              d="M296 325L296 321L295 322L293 318L297 316L296 313L299 310L300 311L303 308L305 308L305 306L308 307L310 305L311 308L317 308L322 300L327 301L330 298L331 299L331 297L337 295L340 292L347 290L347 283L350 280L349 279L352 278L352 274L349 267L349 261L345 259L345 257L358 253L366 255L367 254L364 251L364 249L370 231L377 234L386 235L390 233L392 231L390 220L394 216L396 217L399 215L401 211L400 210L402 208L408 208L410 215L415 217L417 221L423 221L424 224L427 223L427 225L430 227L432 234L434 234L435 237L435 240L433 242L434 245L432 248L433 255L434 254L437 256L438 255L444 257L454 257L465 265L470 265L469 268L471 268L472 273L478 282L484 281L503 284L519 284L526 289L527 288L532 291L542 292L543 294L547 295L550 292L567 285L577 286L588 283L596 275L600 274L603 271L599 265L600 260L603 256L616 260L620 258L625 252L632 252L638 247L637 246L642 241L646 241L647 238L651 239L653 237L658 236L660 238L667 237L666 232L656 222L651 221L647 225L638 223L635 226L632 223L632 221L634 219L641 199L649 203L656 198L662 196L663 193L661 193L661 191L666 184L668 176L671 173L673 173L674 170L673 165L671 163L668 164L668 162L676 154L677 155L693 151L697 151L701 154L702 153L704 156L707 157L713 157L713 160L715 160L716 164L719 166L718 169L720 170L719 171L722 176L721 177L723 178L723 184L726 187L727 194L729 194L728 199L731 203L738 202L738 204L744 204L744 206L746 206L750 211L754 211L752 214L755 218L753 220L757 226L768 225L773 220L775 221L782 217L789 217L786 218L785 223L787 225L781 231L782 232L779 239L780 242L773 255L770 256L763 253L761 255L762 256L756 258L759 268L759 274L757 280L752 282L753 285L750 282L750 280L747 279L746 284L744 286L743 285L740 290L732 290L735 295L733 297L726 296L724 294L725 293L723 293L724 292L721 293L716 302L709 305L703 310M336 392L333 389L333 387L336 384L338 388L340 386L340 382L335 376L335 372L338 369L332 365L330 357L325 358L318 355L318 353L315 354L313 351L314 348L311 345L309 345L309 343L301 341L303 339L305 340M562 482L560 482L561 479L559 479L561 475L559 473L554 474L550 470L548 470L546 474L541 474L538 477L536 475L534 475L531 478L528 475L526 475L525 478L520 477L520 489L516 488L516 484L508 486L508 484L506 484L505 481L501 481L501 475L503 473L498 471L498 467L496 465L498 463L492 463L488 465L487 464L489 462L487 460L489 456L488 455L496 447L495 446L497 442L497 434L494 431L494 433L492 431L492 427L488 425L488 423L486 425L487 426L485 426L486 429L483 431L476 426L472 426L469 427L469 429L466 431L461 432L455 438L451 439L443 439L443 433L439 433L438 428L433 429L424 426L420 430L418 435L416 433L417 428L415 427L413 429L408 430L404 430L399 427L397 429L395 427L395 429L391 425L388 426L387 422L384 423L379 418L379 416L375 418L370 413L368 413L368 411L367 412L366 410L364 410L363 407L358 406L356 410L342 400L339 401L336 398L336 392M571 486L566 485L562 482M574 615L573 606M582 531L585 535L586 540M590 564L588 572M602 636L610 633M632 605L637 599M656 575L659 566M660 533L660 542M668 508L663 516M683 484L677 492M688 469L690 459"
              id="国界"/>
        <path class="leaflet-interactive" stroke="#201920" stroke-opacity="1" stroke-width="2" stroke-linecap="butt"
              stroke-linejoin="round" stroke-dasharray="4,4" stroke-dashoffset="4" fill="none"
              d="M305 340L307 338L305 336L305 328L303 326L300 325L298 327L296 325" id="争议"/>
        <path class="leaflet-interactive" stroke="gray" stroke-opacity="1" stroke-width="1" stroke-linecap="round"
              stroke-linejoin="round" stroke-dasharray="8,4,4,4" fill="none"
              d="M616 480L616 480M621 477L619 477L618 480L623 480L623 478L621 477" id="港澳"/>
        <path class="leaflet-interactive" stroke="#4190da" stroke-opacity="1" stroke-width="1" stroke-linecap="round"
              stroke-linejoin="round" fill="none"
              d="M620 479L620 477L618 478L617 475L616 480L614 482L613 481L613 483L610 482L608 484L605 483L603 485L593 487L589 490L589 492L592 495L590 497L586 497L584 491L586 487L584 485L582 487L580 487L580 485L571 486M590 489L590 489M590 489L590 491L590 489M616 480L616 480M620 479L620 479M620 479L620 479M620 479L620 479M667 440L664 441L666 441L667 444L664 445L665 448L663 450L667 450L665 452L662 451L662 453L660 453L661 454L660 455L660 453L658 457L657 456L658 457L656 460L653 459L653 461L647 468L643 468L639 474L633 474L631 476L629 474L626 477L624 475L624 477L623 478L623 476L621 478L623 478L620 479M667 440L667 440M682 418L680 422L681 425L678 428L677 427L676 430L675 429L667 442L666 441L668 439L667 440M680 344L678 346L674 346L675 349L674 348L673 351L670 352L670 350L670 352L661 363L671 371L675 381L675 385L680 389L679 390L683 392L683 394L678 392L676 394L678 396M678 396L684 401L683 402L685 404L681 402L676 405L679 406L683 411L685 411L682 413L684 414L683 418M680 344L680 344M680 344L680 344M686 318L683 322L679 324L676 323L681 320L681 318L680 319L677 316L679 316L679 314L686 307L685 304L684 305L682 303L677 302L672 307L672 309L665 312L662 315L662 317L656 321L656 323L653 322L653 320L651 320L649 324L649 328L651 328L651 330L658 331L661 334L662 333L662 335L659 336L659 338L662 341L666 341L666 339L670 336L669 335L673 334L679 336L679 338L685 337L689 339L686 344L680 344M680 344L680 344M682 418L682 418M682 418L682 418M682 418L682 418M683 418L682 418M683 418L683 418M685 410L685 410M685 410L685 410M685 410L685 410M686 410L685 410M685 410L683 408L685 408L686 410M686 410L686 410M686 408L687 407L686 408M686 408L686 408M686 318L686 318M703 310L701 314L695 314L686 318M687 403L687 403M687 403L687 403M689 402L689 402M578 485L578 485M580 490L580 490M583 500L583 500M583 604L584 602L587 603L586 602L583 604M584 515L576 511L576 505L581 500L593 497L596 501L593 504L591 510L585 513L584 515M587 600L588 599L587 600M590 493L590 493M591 489L591 489M591 600L591 600M591 598L592 597L591 598M592 490L592 488L592 490M592 496L592 496M592 598L592 598M592 491L592 491M597 534L597 534M599 524L600 523L599 524M599 594L599 594M599 529L599 529M599 588L599 588M600 602L600 602M600 600L600 600M600 529L600 529M600 528L600 528M600 599L601 600L600 599M600 531L600 531M600 593L601 594L600 593M600 528L600 528M601 601L601 601M601 528L601 528M601 531L602 530L601 531M601 529L602 528L601 529M601 532L601 532M603 598L603 598M603 530L603 530M603 632L603 632M605 592L605 592M605 592L605 592M605 632L605 632M605 526L605 526M605 535L605 535M605 524L606 525L605 524M605 591L606 592L605 591M605 631L605 631M606 591L606 591M606 618L606 618M606 525L606 525M606 526L606 526M607 530L606 531L607 530M607 485L607 485M607 617L607 617M607 533L608 532L607 533M607 529L608 528L607 529M607 586L607 586M607 618L608 617L607 618M607 616L608 617L607 616M608 592L608 592M608 615L608 615M608 622L608 622M608 485L608 485M608 618L608 618M608 620L608 620M608 529L609 530L608 529M608 622L608 622M609 484L608 485L609 484M609 530L609 530M609 527L609 527M610 485L609 484L610 485M610 591L610 591M610 485L610 485M610 526L610 526M610 600L610 600M610 586L610 586M610 586L610 586M611 623L611 623M611 595L611 595M611 503L611 503M611 585L611 585M611 483L611 483M612 482L612 482M612 483L612 483M613 482L613 482M613 612L613 612M613 598L613 598M613 598L614 597L613 598M616 480L616 480M616 580L616 580M616 607L616 607M616 591L617 590L616 591M617 589L617 589M617 482L617 482M617 536L617 536M617 482L617 482M617 482L617 482M617 482L617 482M617 602L618 601L617 602M618 604L618 604M618 478L618 478M618 481L618 481M618 506L618 506M618 480L620 480L618 480M618 582L618 582M618 537L618 537M618 535L619 536L618 535M618 599L619 598L618 599M618 602L623 599L624 600L622 602L618 602M619 591L618 592L619 591M619 534L619 534M619 592L619 592M619 591L620 592L619 591M619 538L619 538M620 582L620 582M620 575L620 575M620 598L620 598M620 533L620 533M620 480L620 480M621 482L621 482M621 587L621 587M621 479L621 479M621 482L621 482M621 592L621 592M621 532L621 532M621 481L621 481M621 537L621 537M621 580L621 580M621 584L621 584M621 480L621 480M621 536L622 537L621 536M622 585L622 585M622 571L622 571M622 477L622 477M622 574L622 574M622 479L622 479M622 581L622 581M622 576L622 576M622 570L622 570M623 532L623 532M623 583L623 583M623 536L623 536M623 584L623 584M623 575L623 575M623 576L623 576M623 583L623 583M623 598L624 597L623 598M624 583L624 583M624 583L624 583M624 571L624 571M624 583L624 583M624 592L625 591L624 592M624 536L624 536M624 583L625 582L624 583M624 571L625 570L624 571M624 478L624 478M625 602L625 602M625 597L625 597M625 579L625 579M625 570L625 570M625 574L626 573L625 574M625 531L625 531M625 584L625 584M626 597L626 597M626 573L626 573M626 534L626 534M626 576L626 576M626 605L626 605M626 599L626 599M627 575L627 575M627 532L627 532M627 603L627 603M627 573L627 573M629 595L630 596L629 595M629 594L630 595L629 594M630 581L630 581M630 550L630 550M631 587L631 587M631 583L631 583M631 595L632 594L631 595M633 578L633 578M633 578L633 578M633 578L633 578M633 579L634 578L633 579M634 578L634 578M634 585L635 584L634 585M634 575L634 575M635 490L635 490M635 489L636 490L635 489M635 588L635 588M636 582L636 582M637 586L637 586M638 591L638 591M639 584L639 584M639 589L639 589M639 584L639 584M639 579L641 579L639 579M640 584L640 584M641 578L641 578M641 530L641 530M641 570L642 571L641 570M641 493L641 493M641 590L641 590M642 492L642 494L642 492M642 578L642 578M645 469L643 469L645 469M645 577L645 577M645 576L645 576M646 580L646 580M646 577L647 576L646 577M646 573L646 573M646 582L646 582M647 574L647 574M649 577L649 577M649 574L649 574M649 540L650 539L649 540M650 576L650 576M652 460L652 460M653 460L652 459L653 460M653 461L654 460L653 461M655 460L654 461L655 460M657 321L657 321M658 320L658 320M658 320L659 321L658 320M663 471L663 471M663 454L664 453L663 454M664 470L664 470M664 467L664 467M664 467L664 467M664 450L664 450M665 445L665 445M665 468L664 469L665 468M665 449L665 449M665 450L665 450M665 441L666 440L665 441M665 452L665 452M665 452L665 452M666 441L666 441M667 450L667 450M667 445L667 445M667 447L667 447M668 469L668 469M668 444L667 445L668 444M668 442L668 442M669 442L669 442M669 441L669 441M669 439L669 439M669 355L669 355M670 438L670 438M670 479L670 479M670 438L670 438M671 335L671 335M672 443L672 443M673 333L672 332L673 333M673 482L669 475L668 468L674 458L679 453L681 453L683 455L683 460L679 472L675 477L675 483L673 482M673 332L673 332M673 333L673 333M674 331L674 331M674 306L674 306M674 329L674 329M675 328L675 328M675 329L675 329M676 348L676 348M676 429L676 429M676 433L676 433M676 429L677 428L676 429M677 429L678 428L677 429M679 393L684 396L683 397L677 393L679 393M679 386L679 386M679 476L679 476M680 481L680 481M681 482L681 482M681 396L681 396M681 418L681 418M682 422L682 422M682 398L680 397L682 398M682 397L684 398L682 397M682 409L682 409M682 421L682 421M682 422L683 421L682 422M683 424L683 424M683 409L682 410L683 409M683 398L683 398M683 424L683 424M683 451L683 451M683 457L683 457M683 409L683 409M683 399L684 398L683 399M683 407L683 407M684 418L684 418M684 412L684 412M684 410L684 410M684 408L684 408M684 404L684 404M684 410L684 410M684 410L684 410M685 410L685 410M685 410L685 410M685 408L685 408M685 407L686 408L685 407M685 408L685 408M685 415L685 415M685 413L684 412L685 413M685 413L685 413M685 410L686 411L685 410M686 411L686 411M686 411L686 411M686 413L685 412L686 413M686 411L687 410L687 412L686 411M687 320L687 320M687 410L687 410M687 406L687 406M688 406L688 406M688 320L688 320M688 319L688 319M688 404L688 404M689 320L690 319L689 320M690 409L690 409M690 322L689 321L690 322M690 403L690 403M690 403L690 403M692 316L691 317L692 316M692 317L692 317M693 322L693 322M694 449L696 449L694 449M696 448L696 448M697 447L698 448L697 447M697 450L697 450M697 449L697 449M697 450L697 450M697 314L697 314M704 447L703 448L704 447"
              id="海洋"/>
        <path class="leaflet-interactive" stroke="#747569" stroke-opacity="0.6" stroke-width="1" stroke-linecap="round"
              stroke-linejoin="round" fill="none"
              d="M424 351L415 348L405 348L397 350L394 355L386 355L379 359L370 358L369 355L365 355L365 357L363 357L361 360L349 358L349 360L347 362L346 361L345 366L343 368L342 367L338 369M488 386L486 386L486 388L483 391L481 391L480 394L477 392L476 395L474 393L471 394L469 392L470 389L469 390L467 388L469 388L467 388L464 385L458 387L453 386L451 384L444 384L439 381L433 381L429 379L423 371L425 371L425 363L423 363L422 360L425 354L421 352L424 351M446 322L439 323L437 325L431 325L430 327L427 328L428 330L430 330L430 335L432 335L437 342L435 342L432 345L432 347L435 348L433 352L427 350L425 352L424 351M521 376L520 377L519 375L517 375L513 371L513 369L514 368L523 371L523 369L525 369L522 366L522 364L526 360L525 359L529 357L528 354L530 354L531 352L529 346L526 343L528 341L522 335L521 336L517 334L508 327L508 329L506 329L498 321L493 322L491 324L486 320L482 320L483 325L480 328L480 330L478 329L476 331L472 328L463 329L461 324L457 325L457 323L452 323L451 320L446 322M478 282L474 285L476 288L474 292L469 294L466 293L458 300L456 304L450 305L448 315L445 319L446 322M541 338L534 334L534 328L538 326L541 321L539 319L540 318L537 317L531 321L527 319L521 321L523 323L521 325L514 322L513 318L503 313L509 305L508 302L500 302L500 304L499 303L496 305L496 303L493 305L493 302L490 300L488 296L489 294L484 281M500 417L498 403L495 398L498 397L494 393L492 387L488 386M521 376L520 381L516 379L517 384L511 386L509 384L508 385L506 381L505 384L498 381L494 371L490 370L488 371L488 373L486 373L486 375L489 378L486 381L487 382L485 382L486 385L488 386M492 427L492 425L496 427L496 419L498 421L498 417L500 417M549 431L548 428L544 430L542 428L542 422L538 422L538 425L534 427L535 430L530 435L531 442L528 445L528 443L521 446L521 444L519 444L519 440L513 432L514 431L512 429L510 431L507 428L507 423L504 421L502 423L502 427L500 425L500 417M551 382L550 385L544 385L541 382L542 379L540 375L533 374L530 369L524 373L527 376L522 381L521 376M568 334L565 331L559 329L563 322L561 318L557 319L557 321L556 320L554 324L554 332L552 335L541 338M541 338L543 338L550 345L549 346L551 350L551 355L553 355L553 357L555 357L558 360L558 356L563 353L563 351L559 349L559 343L561 341L565 341M549 431L549 433L545 435L541 435L538 433L536 437L537 442L543 440L544 441L541 450L544 453L546 453L543 458M543 458L543 460L547 460L549 464L554 463L556 465L555 469L554 468L551 471M583 446L582 449L579 448L578 449L580 449L580 451L577 450L576 453L572 451L573 452L569 454L566 453L565 450L555 458L548 455L544 459L543 458M558 424L556 422L552 424L552 426L553 425L557 427L558 429L556 431L549 431M565 341L565 343L572 347L573 346L576 349L576 358L574 360L569 359L569 363L559 361L560 364L558 366L561 369L559 369L560 376L554 376L553 379L555 380L552 383L551 382M575 389L569 389L568 387L566 387L567 386L565 387L563 385L564 384L557 385L555 383L552 384L551 382M581 424L580 427L578 427L574 419L570 419L568 417L566 417L566 421L563 420L561 424L559 424L559 422L558 424M558 424L557 420L553 420L553 418L549 414L553 410L551 408L555 406L557 408L560 407L560 409L563 410L566 407L566 403L571 402L571 398L575 395L573 391L575 389M565 341L565 337L568 334M596 318L596 316L593 319L590 319L588 317L589 318L587 320L586 319L587 320L580 327L580 332L578 332L576 336L568 334M575 389L584 394M584 394L589 399L589 401L583 405L574 405L574 407L576 408L574 412L576 412L579 415L578 416L580 415L581 418M581 418L581 424M619 419L617 419L616 412L612 415L611 412L606 415L602 411L598 411L596 409L592 409L592 413L585 412L585 414L584 413L581 418M583 446L583 444L581 444L583 436L578 437L578 435L580 435L579 434L583 432L581 424M603 458L602 457L599 459L599 455L595 455L599 448L597 448L596 443L592 443L589 447L587 445L585 447L583 446M595 379L593 381L591 379L583 379L585 383L586 382L589 385L585 385L583 387L584 394M585 486L585 487M585 486L589 482L590 483L590 481L593 480L593 478L596 475L598 475L598 469L604 461L603 458M586 498L587 498M588 498L590 497M590 366L589 363L592 356L590 342L594 336L591 333L591 331L594 328L595 323L597 321L596 318M590 366L595 379M590 366L600 364L603 361L604 362L604 360L610 360L616 356L617 349M591 497L592 496M630 397L628 395L625 396L624 393L619 394L617 390L618 389L616 387L614 389L612 387L605 388L601 386L595 379M595 380L595 380M620 304L620 306L610 308L610 310L607 308L602 316L599 315L599 317L596 318M603 458L605 454L609 454L609 456L611 456L612 453L610 453L612 451L616 453L619 451M631 351L628 350L627 352L617 349M617 349L615 345L617 345L617 343L618 344L617 341L620 338L620 334L618 330L616 330L616 326L618 324L617 322L622 321L624 317L623 314L619 312L619 310L620 311L620 309L623 308L620 304M637 412L635 413L631 411L631 413L629 413L626 416L622 416L619 419M619 451L619 447L621 445L619 445L620 442L618 440L618 435L616 433L616 431L621 426L621 422L619 419M619 451L619 453L625 453L625 455L623 455L621 459L623 460L630 457L634 459L633 458L635 456M661 298L654 297L654 289L653 290L651 288L652 287L650 283L644 285L640 291L639 290L636 293L634 291L630 293L630 295L626 295L627 291L623 289L621 295L618 296L620 304M637 366L637 368L640 369L641 372L638 375L634 371L632 373L633 376L631 376L630 379L626 381L629 384L629 386L635 386L635 392L632 393L630 397M637 412L634 406L634 402L636 400L630 397M651 329L646 334L642 334L639 337L638 336L637 339L635 339L635 341L630 346L631 351M637 366L631 366L631 364L629 364L629 362L628 363L626 361L634 353L636 353L636 351L630 355L631 351M635 456L634 453L641 442L640 439L644 437L645 434L643 432L646 431L646 429L649 430L655 426M645 468L642 459L640 459L638 457L639 456L635 456M653 416L653 414L649 414L646 411L644 411L645 412L642 414L641 413L643 411L641 409L637 412M638 366L637 366M662 362L658 362L658 364L655 365L654 368L651 365L649 367L646 366L646 368L642 362L639 363L638 366M665 399L664 400L662 398L658 398L657 397L659 395L657 395L657 393L656 394L654 392L656 390L655 389L657 389L656 386L660 386L661 383L658 382L658 384L654 384L654 382L651 379L653 375L649 375L650 374L647 371L638 366M647 309L645 307L648 304L644 304L640 300L638 302L639 303L633 306L635 308L631 312L631 314L634 317L638 317L640 315L642 316M649 326L646 327L641 324L643 320L642 316M643 315L642 316M643 315L645 315L645 311M645 311L642 312L643 315M645 468L646 469M647 309L645 311M646 470L647 470M647 309L650 312L648 312L648 314L652 320M653 416L659 410L658 409L663 406L661 404L664 403L665 399M653 416L652 419L655 422L655 426M671 436L670 433L666 435L664 431L661 434L658 433L658 426L655 426M661 298L663 296L663 286L668 291L668 293L674 287L675 288L678 285L682 285L684 282L692 282L695 279L697 279L697 275M666 312L666 309L663 306L661 306L661 304L658 303L661 298M675 400L672 403L665 399M673 437L674 437M674 328L676 328M683 395L678 392L677 398L675 400M678 404L675 400M679 404L680 404M695 234L695 236L694 235L692 237L687 230L688 227L702 215L704 221L706 209L710 207L709 199L716 184L710 176L707 178L707 180L692 181L689 172L690 169L686 165L683 168L681 168L681 166L678 164L682 158L680 154M680 404L681 403M682 403L683 403M684 402L685 402M687 402L688 402M689 401L690 401M759 274L754 274L750 268L748 270L748 268L745 270L744 269L742 273L740 273L736 267L735 262L732 265L733 266L730 267L727 261L724 262L725 257L723 255L715 255L713 251L704 252L700 248L700 242L693 243M693 243L692 239L697 237L697 235L696 236L695 234M693 243L690 245L690 249L687 246L684 247L682 245L681 248L684 250L686 254L684 257L686 265L691 264L693 262L696 271L696 273L694 273L697 275M695 234L695 234M695 234L695 234M695 234L695 234M697 275L698 274L703 279L703 281L706 278L707 279L709 287L711 289L712 288L710 290L710 294L712 294L711 295L714 298L712 302L714 302M554 358L555 357L554 358M583 440L584 439L583 440M611 412L611 412"
              id="省界"/>
        <path class="leaflet-interactive" stroke="#8B908F" stroke-opacity="0.5" stroke-width="1" stroke-linecap="butt"
              stroke-linejoin="bevel" fill="#eee" fill-opacity="0.5" fill-rule="evenodd"
              d="M646 305L648 305L643 304L641 300L636 305L633 306L635 308L634 310L631 311L631 314L634 317L638 317L640 315L641 316L643 314L642 311L647 310L645 308L646 305z"
              id="北京市"/>
        <path class="leaflet-interactive" stroke="#8B908F" stroke-opacity="0.5" stroke-width="1" stroke-linecap="butt"
              stroke-linejoin="bevel" fill="#eee" fill-opacity="0.5" fill-rule="evenodd"
              d="M650 318L651 317L648 314L648 312L650 312L647 309L645 311L645 315L642 316L643 320L641 324L649 326L651 322L650 321L652 319L649 318zM650 318L650 318z"
              id="天津市"/>
        <path class="leaflet-interactive" stroke="#8B908F" stroke-opacity="0.5" stroke-width="1" stroke-linecap="butt"
              stroke-linejoin="bevel" fill="#eee" fill-opacity="0.5" fill-rule="evenodd"
              d="M647 305L645 307L650 312L648 312L648 314L655 323L662 317L662 314L666 312L664 306L662 306L659 303L659 301L662 298L654 297L654 289L653 290L651 288L652 287L650 283L644 285L641 291L635 291L630 293L630 295L627 294L627 291L625 289L623 289L621 295L618 296L618 300L622 308L624 308L619 311L623 313L623 319L619 321L616 326L616 330L619 332L620 335L617 341L618 342L615 346L618 349L627 352L629 350L630 351L630 347L634 343L635 339L638 337L639 338L642 334L646 334L651 329L648 326L644 326L641 324L643 320L641 315L639 317L633 317L631 315L631 312L635 308L633 306L636 305L641 300L643 304L647 305zM645 311L642 312L643 315L645 315L645 311zM650 318L649 318zM658 320L658 321z"
              id="河北省"/>
        <path class="leaflet-interactive" stroke="#8B908F" stroke-opacity="0.5" stroke-width="1" stroke-linecap="butt"
              stroke-linejoin="bevel" fill="#eee" fill-opacity="0.5" fill-rule="evenodd"
              d="M590 366L600 364L603 361L604 362L604 360L610 360L616 356L617 349L615 345L618 343L617 342L620 337L619 332L616 329L618 325L617 322L622 321L624 317L623 314L619 311L624 308L622 308L621 304L616 308L613 307L610 308L609 310L607 308L602 316L600 315L597 318L594 328L591 331L591 333L594 336L590 342L592 354L589 363L590 366z"
              id="山西省"/>
        <path class="leaflet-interactive" stroke="#8B908F" stroke-opacity="0.5" stroke-width="1" stroke-linecap="butt"
              stroke-linejoin="bevel" fill="#eee" fill-opacity="0.5" fill-rule="evenodd"
              d="M484 281L489 294L487 296L493 302L493 305L497 305L499 303L500 304L500 302L507 302L509 305L508 309L503 313L513 318L513 322L516 322L519 325L521 325L523 323L521 321L526 319L530 321L534 318L539 317L541 321L538 326L534 328L534 334L542 338L551 335L554 332L554 324L556 320L557 321L557 319L560 318L563 321L563 323L559 329L562 331L566 331L566 333L571 334L571 336L576 336L577 333L580 332L579 329L587 320L586 319L587 320L589 318L588 317L590 319L592 319L595 316L597 318L600 315L601 316L607 308L609 310L613 307L616 308L620 306L618 296L621 295L623 289L625 289L627 291L626 294L629 295L634 291L636 293L639 290L640 291L643 289L643 285L647 285L650 283L652 287L651 288L653 290L654 289L654 297L661 298L663 296L663 290L661 288L663 286L668 291L668 293L674 287L675 288L678 285L682 285L688 281L691 282L697 278L697 276L694 273L696 273L696 271L693 262L686 266L684 259L686 255L681 248L682 245L684 247L687 246L690 249L690 245L693 243L692 239L697 237L696 234L694 234L695 235L693 237L691 236L691 234L687 230L688 227L696 222L702 215L704 221L706 209L710 207L709 199L716 184L710 176L707 178L707 180L692 180L689 173L690 168L688 168L685 165L682 168L678 164L682 158L681 155L676 154L668 162L668 164L673 164L674 171L667 178L668 179L663 186L664 187L661 193L663 193L662 196L649 203L641 199L634 215L634 219L632 220L632 223L635 226L638 223L647 226L651 221L656 222L666 232L667 237L665 239L660 238L658 236L650 239L648 238L646 241L642 241L637 247L638 248L633 252L625 252L620 258L616 260L610 259L607 256L602 256L599 264L603 272L595 276L590 282L578 286L567 285L558 288L547 295L544 294L543 292L532 291L528 288L526 289L519 284L498 284L485 282z"
              id="内蒙古自治区"/>
        <path class="leaflet-interactive" stroke="#8B908F" stroke-opacity="0.5" stroke-width="1" stroke-linecap="butt"
              stroke-linejoin="bevel" fill="#eee" fill-opacity="0.5" fill-rule="evenodd"
              d="M696 314L700 314L707 306L708 307L714 302L714 298L711 295L712 294L710 294L710 290L712 288L711 289L709 287L709 283L706 278L703 281L703 278L698 274L696 279L693 280L694 281L687 281L687 283L685 282L682 285L678 285L668 293L668 291L663 286L661 288L663 290L663 295L659 300L659 303L662 306L664 306L666 312L672 309L672 307L677 302L682 302L686 306L683 309L684 310L679 314L680 315L677 317L681 319L681 321L680 320L680 322L679 321L677 325L682 322L683 323L682 322L688 317L696 314zM689 319L689 319zM686 320L686 320zM689 319L690 320L689 319zM690 322L689 321L690 322zM692 316L691 317L692 316zM688 319L688 320zM674 306L674 306zM692 317L692 317zM693 322L693 322zM697 314L698 314z"
              id="辽宁省"/>
        <path class="leaflet-interactive" stroke="#8B908F" stroke-opacity="0.5" stroke-width="1" stroke-linecap="butt"
              stroke-linejoin="bevel" fill="#eee" fill-opacity="0.5" fill-rule="evenodd"
              d="M745 286L747 279L749 279L753 285L753 283L751 282L755 281L758 278L759 275L751 272L751 268L749 270L747 268L743 270L742 273L740 273L736 267L735 262L732 265L733 266L730 267L727 261L724 262L725 257L723 255L715 255L713 251L709 253L707 251L704 252L700 248L700 244L698 242L694 242L690 245L690 249L687 246L684 247L682 245L681 248L684 250L686 255L684 257L686 265L688 266L693 262L696 271L696 273L694 273L696 275L698 274L701 277L702 276L702 279L704 281L706 278L707 279L709 287L711 289L712 288L710 290L710 294L712 294L711 295L714 298L714 302L717 301L723 292L727 296L734 297L732 290L740 290L743 285L745 286z"
              id="吉林省"/>
        <path class="leaflet-interactive" stroke="#8B908F" stroke-opacity="0.5" stroke-width="1" stroke-linecap="butt"
              stroke-linejoin="bevel" fill="#eee" fill-opacity="0.5" fill-rule="evenodd"
              d="M696 243L700 243L700 247L704 252L707 251L709 253L713 251L715 255L723 255L725 257L724 262L727 261L731 267L733 267L732 264L735 262L736 267L740 273L742 273L742 271L747 268L749 270L751 268L751 272L757 275L758 268L756 259L763 254L772 257L773 256L773 252L780 241L779 240L782 232L781 231L786 226L786 218L789 216L773 220L770 223L769 222L770 223L768 225L757 226L753 221L755 219L752 214L754 211L750 211L743 204L740 205L737 202L731 203L729 201L729 194L727 194L726 187L723 184L724 181L722 181L723 178L721 177L722 176L719 172L720 171L716 163L717 162L713 160L714 159L712 157L706 157L696 151L681 153L680 154L682 158L677 164L680 165L681 168L683 168L686 165L690 169L689 172L692 181L707 180L709 176L716 183L714 191L709 198L710 206L706 208L704 221L702 215L691 226L688 227L687 230L692 237L694 235L695 236L695 234L696 236L697 235L697 237L692 238L693 242L696 243z"
              id="黑龙江省"/>
        <path class="leaflet-interactive" stroke="#8B908F" stroke-opacity="0.5" stroke-width="1" stroke-linecap="butt"
              stroke-linejoin="bevel" fill="#eee" fill-opacity="0.5" fill-rule="evenodd"
              d="M675 400L679 404L684 401L679 396L677 396L675 400zM683 395L678 392L677 393L680 396L684 396zM682 398L680 396L682 398zM682 397L685 398L682 397zM681 396L680 396zM683 399L683 398zM683 398L683 398z"
              id="上海市"/>
        <path class="leaflet-interactive" stroke="#8B908F" stroke-opacity="0.5" stroke-width="1" stroke-linecap="butt"
              stroke-linejoin="bevel" fill="#eee" fill-opacity="0.5" fill-rule="evenodd"
              d="M646 367L645 368L642 363L638 365L645 371L648 371L650 375L652 375L651 380L653 380L655 384L659 382L661 384L660 387L656 385L657 388L654 392L656 394L657 393L657 395L659 395L657 398L663 398L662 399L666 399L672 403L679 395L677 394L678 392L683 395L683 392L675 384L671 371L663 365L661 361L658 362L655 368L653 368L651 365L649 367L646 367z"
              id="江苏省"/>
        <path class="leaflet-interactive" stroke="#8B908F" stroke-opacity="0.5" stroke-width="1" stroke-linecap="butt"
              stroke-linejoin="bevel" fill="#eee" fill-opacity="0.5" fill-rule="evenodd"
              d="M655 426L658 427L658 433L661 434L665 431L666 434L670 433L672 436L673 432L677 430L676 427L677 428L681 426L681 418L684 417L682 413L685 411L681 410L676 405L678 403L675 400L672 403L666 399L664 403L661 404L663 406L660 407L658 409L659 410L652 417L652 419L655 422L655 425zM685 410L686 411L686 409L684 408L685 410zM685 408L685 409zM686 413L686 413zM687 403L687 403zM685 407L686 408L685 407zM686 408L686 407zM684 418L684 417zM687 411L687 411zM687 406L687 406zM682 421L683 421zM686 411L686 412zM682 418L682 418zM677 432L677 432zM683 403L684 404L683 403zM683 424L683 424zM685 413L684 412L685 413zM687 410L687 411zM688 404L688 404zM683 424L683 424zM684 408L684 408zM687 410L687 410zM682 410L683 409L682 410zM676 433L676 433zM683 417L684 418L683 417zM684 412L684 413zM683 409L683 409zM683 407L683 407zM685 410L685 410zM686 413L686 412zM677 430L677 430zM690 409L690 409zM686 407L686 407zM686 411L686 411zM690 403L690 403zM676 429L677 428L676 429zM677 429L678 428L677 429zM687 410L687 410zM690 403L690 403zM685 410L686 410zM684 410L684 410zM676 429L676 428zM687 411L687 411zM685 410L685 410z"
              id="浙江省"/>
        <path class="leaflet-interactive" stroke="#8B908F" stroke-opacity="0.5" stroke-width="1" stroke-linecap="butt"
              stroke-linejoin="bevel" fill="#eee" fill-opacity="0.5" fill-rule="evenodd"
              d="M640 372L641 373L637 375L633 371L633 376L631 376L630 379L626 381L629 384L629 386L635 386L635 393L633 393L630 396L634 400L636 400L633 404L637 412L640 411L640 409L643 411L641 413L642 414L645 411L647 411L648 414L655 415L659 410L658 409L663 406L661 404L663 404L665 400L662 399L663 398L657 398L659 396L655 392L657 388L656 385L660 387L661 384L659 382L655 384L653 380L651 380L653 375L649 375L650 373L648 371L644 371L639 366L637 367L638 369L640 369L640 372zM658 396L659 396zM641 413L641 413zM631 387L631 387z"
              id="安徽省"/>
        <path class="leaflet-interactive" stroke="#8B908F" stroke-opacity="0.5" stroke-width="1" stroke-linecap="butt"
              stroke-linejoin="bevel" fill="#eee" fill-opacity="0.5" fill-rule="evenodd"
              d="M660 456L659 453L661 455L660 454L663 453L661 453L661 451L667 451L663 449L665 449L665 445L667 443L665 441L667 441L667 439L668 440L666 442L669 441L668 440L671 437L671 435L666 435L664 431L662 434L659 433L657 425L654 426L654 428L650 430L647 429L644 432L645 434L640 439L641 442L639 446L636 448L634 456L638 456L640 458L639 459L642 458L643 465L646 468L653 462L652 459L656 460L658 458L657 457L660 456zM655 460L654 461L655 460zM663 454L664 453L663 454zM664 450L664 450zM667 445L667 444zM653 461L653 460zM667 440L667 440zM653 460L652 459L653 460zM667 445L667 445zM665 445L664 445zM668 442L668 442zM665 450L665 449zM666 441L666 441zM669 441L669 441zM670 438L670 438zM669 439L669 439zM665 441L666 440L665 441z"
              id="福建省"/>
        <path class="leaflet-interactive" stroke="#8B908F" stroke-opacity="0.5" stroke-width="1" stroke-linecap="butt"
              stroke-linejoin="bevel" fill="#eee" fill-opacity="0.5" fill-rule="evenodd"
              d="M653 416L652 414L648 414L647 411L645 411L642 414L641 413L643 411L641 409L635 413L631 411L631 413L629 413L626 416L622 416L619 419L621 421L621 426L617 430L616 434L618 434L617 437L620 442L619 444L621 444L619 452L625 453L621 458L623 460L630 457L633 459L634 458L636 449L641 442L640 439L645 435L644 432L647 429L650 430L655 427L655 423L652 419L653 416z"
              id="江西省"/>
        <path class="leaflet-interactive" stroke="#8B908F" stroke-opacity="0.5" stroke-width="1" stroke-linecap="butt"
              stroke-linejoin="bevel" fill="#eee" fill-opacity="0.5" fill-rule="evenodd"
              d="M638 366L639 363L642 362L645 367L649 367L651 365L654 368L656 365L658 365L657 364L659 362L663 361L663 359L670 352L670 350L670 352L673 351L674 348L675 349L674 346L675 347L683 343L686 344L689 338L679 338L679 336L673 334L669 335L670 336L666 339L666 341L662 341L659 337L662 336L662 334L659 331L656 332L651 329L646 334L642 334L639 337L638 336L638 338L637 337L638 338L635 339L635 341L630 346L630 355L636 351L636 353L634 353L626 361L633 367L638 366zM673 333L674 333zM673 332L673 332zM676 348L675 348zM674 331L674 330zM675 329L675 328zM669 355L669 354zM673 333L672 332zM674 329L674 329zM680 336L680 336zM680 336L680 336zM680 336L680 336zM631 353L631 353z"
              id="山东省"/>
        <path class="leaflet-interactive" stroke="#8B908F" stroke-opacity="0.5" stroke-width="1" stroke-linecap="butt"
              stroke-linejoin="bevel" fill="#eee" fill-opacity="0.5" fill-rule="evenodd"
              d="M609 388L612 387L615 389L617 387L619 394L624 394L625 396L628 395L630 397L631 394L635 393L635 387L631 387L629 383L626 382L630 380L633 371L637 375L641 373L637 366L631 366L631 364L629 364L628 362L627 363L626 360L636 352L631 353L630 355L631 352L629 350L627 352L618 349L616 356L611 360L604 359L603 362L590 367L597 383L604 388L608 388zM617 388L617 389z"
              id="河南省"/>
        <path class="leaflet-interactive" stroke="#8B908F" stroke-opacity="0.5" stroke-width="1" stroke-linecap="butt"
              stroke-linejoin="bevel" fill="#eee" fill-opacity="0.5" fill-rule="evenodd"
              d="M596 380L583 380L586 383L588 383L587 386L584 385L583 389L584 394L588 397L589 401L582 405L574 405L576 408L574 412L576 412L579 415L578 416L580 415L581 418L582 415L584 413L585 414L585 412L592 413L592 409L602 411L605 414L609 414L611 412L612 415L616 411L616 417L618 419L621 416L627 416L626 415L632 411L635 413L636 412L636 408L634 406L634 402L636 400L632 399L628 395L625 396L624 393L619 394L617 388L604 388L601 385L600 386L596 380zM580 405L580 405zM596 380L596 380zM609 388L609 388zM610 412L611 412z"
              id="湖北省"/>
        <path class="leaflet-interactive" stroke="#8B908F" stroke-opacity="0.5" stroke-width="1" stroke-linecap="butt"
              stroke-linejoin="bevel" fill="#eee" fill-opacity="0.5" fill-rule="evenodd"
              d="M603 458L605 454L609 454L609 456L611 456L610 453L612 451L616 453L619 450L619 446L621 445L619 445L620 442L618 440L618 434L616 434L616 432L617 429L620 428L619 427L621 425L621 421L618 418L617 419L616 412L612 415L611 412L609 414L605 414L602 411L591 409L591 413L583 413L581 417L581 428L583 432L581 434L580 433L580 435L577 437L582 436L584 438L584 440L582 440L581 443L586 448L586 445L590 447L592 444L598 444L597 447L599 447L595 456L599 454L599 458L603 457zM583 440L583 440z"
              id="湖南省"/>
        <path class="leaflet-interactive" stroke="#8B908F" stroke-opacity="0.5" stroke-width="1" stroke-linecap="butt"
              stroke-linejoin="bevel" fill="#eee" fill-opacity="0.5" fill-rule="evenodd"
              d="M616 480L617 476L623 478L624 475L626 477L629 474L631 476L633 474L639 474L642 471L642 469L645 468L642 458L639 459L640 458L638 456L634 456L634 459L632 459L631 457L623 460L621 458L625 454L624 452L619 453L619 451L613 451L611 453L610 452L612 454L610 456L608 454L604 455L605 456L603 458L603 464L598 469L599 472L596 476L593 477L592 480L590 480L589 483L588 482L586 485L585 484L586 487L584 491L586 497L590 497L592 495L589 492L591 488L603 485L605 483L613 483L616 480zM644 469L644 469zM610 484L609 485L610 484zM607 485L608 485zM621 481L621 481zM591 489L592 490L592 488L591 489zM607 485L607 484zM591 490L589 490L592 490zM617 482L617 482zM617 482L617 482zM612 483L612 483zM618 478L618 478zM621 482L621 482zM621 482L620 482zM642 492L643 493L641 494L643 494L642 492zM611 483L611 483zM590 493L590 493zM592 491L592 491zM592 496L592 496zM635 489L636 490L635 489zM635 490L635 490zM634 475L634 475zM634 475L634 475z"
              id="广东省"/>
        <path class="leaflet-interactive" stroke="#8B908F" stroke-opacity="0.5" stroke-width="1" stroke-linecap="butt"
              stroke-linejoin="bevel" fill="#eee" fill-opacity="0.5" fill-rule="evenodd"
              d="M583 446L582 449L579 448L578 449L580 449L578 451L577 450L576 453L575 451L573 451L572 454L570 454L564 450L562 454L555 458L548 455L545 459L543 459L550 464L555 463L557 465L556 468L554 468L551 471L554 474L559 473L561 475L559 479L561 480L560 482L571 486L576 484L579 485L579 487L581 487L584 485L585 486L585 484L586 485L589 482L590 483L590 481L593 480L593 478L599 473L599 467L603 465L602 463L604 461L602 457L599 459L598 454L596 456L595 455L599 448L597 448L597 444L592 444L589 447L587 445L586 448L583 446zM548 456L548 456zM580 490L580 490z"
              id="广西壮族自治区"/>
        <path class="leaflet-interactive" stroke="#8B908F" stroke-opacity="0.5" stroke-width="1" stroke-linecap="butt"
              stroke-linejoin="bevel" fill="#eee" fill-opacity="0.5" fill-rule="evenodd"
              d="M588 499L581 500L576 505L576 511L578 513L584 515L592 509L592 506L596 502L593 498L588 498zM605 632L605 632zM613 598L614 597zM603 632L603 632zM599 524L600 523L599 524zM649 540L649 539zM605 631L605 631zM601 531L602 531zM600 531L601 531zM618 602L622 602L624 600L623 599L619 602zM619 591L620 592L619 591zM619 592L619 592zM603 530L603 530zM601 529L602 528L601 529zM605 592L605 592zM618 604L618 604zM621 592L621 592zM605 524L606 525L605 524zM625 579L625 579zM634 585L634 584zM624 583L625 582zM617 602L618 601zM583 604L585 602L587 603L583 603zM638 591L638 591zM607 533L608 532L607 533zM608 592L608 592zM623 575L624 575zM607 530L607 530zM639 579L640 579zM606 525L606 525zM599 529L600 529zM631 583L632 583zM625 597L625 597zM623 598L624 597zM629 595L630 596L629 595zM618 599L619 598zM631 587L631 587zM639 589L639 589zM616 591L617 590L616 591zM625 574L626 573L625 574zM624 571L624 570zM627 575L627 575zM600 529L600 529zM619 591L619 592zM587 600L587 599zM641 570L642 571L641 570zM601 528L601 528zM607 529L608 528L607 529zM601 532L602 532zM618 582L618 581zM626 597L626 597zM640 584L640 585zM630 581L630 581zM642 578L642 578zM625 531L625 531zM635 588L635 588zM617 589L617 589zM625 602L625 602zM623 576L624 576zM650 576L650 576zM621 580L621 580zM625 570L625 570zM641 578L641 578zM591 598L592 597L591 598zM599 594L599 594zM629 594L630 594zM613 598L613 598zM620 575L620 575zM646 580L646 579zM621 532L621 532zM592 598L592 598zM631 595L632 594zM600 602L600 602zM600 593L601 593zM591 600L591 600zM606 591L606 591zM639 584L639 584zM603 598L603 598zM623 536L623 536zM627 573L628 573zM620 533L620 533zM636 582L636 581zM646 577L646 576zM626 605L626 605zM610 591L610 591zM601 601L601 601zM605 592L605 592zM607 616L608 616zM624 592L624 591zM626 599L626 598zM611 595L611 595zM616 607L616 607zM641 530L641 530zM646 582L646 581zM611 503L611 503zM623 532L623 532zM618 506L618 506zM608 622L609 622zM600 599L600 599zM605 591L606 591zM610 600L611 600zM608 618L608 618zM607 618L607 617zM630 550L630 550zM616 580L616 580zM618 537L618 537zM611 623L611 623zM608 622L608 622zM606 618L606 618zM605 526L605 526zM605 535L605 535zM608 620L608 620zM607 617L607 617zM613 612L613 612zM637 586L637 586zM627 603L627 602zM600 600L600 600zM619 534L619 534zM627 532L627 533zM641 590L641 590zM608 529L609 529zM597 500L597 500zM633 579L634 579zM645 576L645 577zM609 530L609 530zM634 578L634 578zM607 586L608 586zM624 536L624 536zM646 573L646 574zM649 574L649 574zM621 587L621 587zM625 584L625 585zM608 615L608 615z"
              id="海南省"/>
        <path class="leaflet-interactive" stroke="#8B908F" stroke-opacity="0.5" stroke-width="1" stroke-linecap="butt"
              stroke-linejoin="bevel" fill="#eee" fill-opacity="0.5" fill-rule="evenodd"
              d="M558 424L559 421L560 424L564 420L565 421L567 417L569 417L570 420L574 418L574 422L576 422L576 424L579 427L582 423L582 419L580 415L578 415L578 413L574 412L576 408L574 406L576 406L577 404L580 405L588 402L589 399L587 396L585 394L581 394L579 391L575 389L575 391L573 391L575 395L571 399L572 398L570 403L566 403L567 404L563 410L561 410L560 407L557 408L553 406L553 408L551 408L553 410L550 416L553 417L553 419L555 419L558 423zM580 404L580 405zM552 409L552 409zM580 405L580 405zM563 410L563 410z"
              id="重庆市"/>
        <path class="leaflet-interactive" stroke="#8B908F" stroke-opacity="0.5" stroke-width="1" stroke-linecap="butt"
              stroke-linejoin="bevel" fill="#eee" fill-opacity="0.5" fill-rule="evenodd"
              d="M516 436L521 446L530 443L530 435L535 430L535 426L536 427L538 425L537 424L541 422L541 426L543 426L541 428L543 430L549 428L550 431L557 431L557 427L553 425L552 426L552 424L555 421L558 424L557 420L553 420L553 418L549 414L553 411L552 408L551 409L554 406L557 408L560 407L560 409L563 410L567 403L571 402L571 398L575 395L573 391L575 391L575 389L571 389L568 387L567 388L567 386L564 387L563 384L556 385L556 383L554 383L552 385L551 382L550 385L544 385L541 382L542 379L540 375L533 374L530 369L525 372L527 376L522 381L521 376L520 381L516 379L517 384L511 386L509 384L508 385L506 381L505 384L498 381L494 371L488 371L486 375L489 378L486 380L487 381L485 383L493 389L497 397L495 399L498 403L500 424L502 427L502 423L504 421L508 425L507 428L510 431L512 429L516 436zM557 408L557 408zM563 409L563 409zM551 408L551 408z"
              id="四川省"/>
        <path class="leaflet-interactive" stroke="#8B908F" stroke-opacity="0.5" stroke-width="1" stroke-linecap="butt"
              stroke-linejoin="bevel" fill="#eee" fill-opacity="0.5" fill-rule="evenodd"
              d="M581 424L580 427L578 427L577 424L576 425L576 423L574 422L574 418L570 420L570 418L567 417L566 420L564 420L560 424L559 421L558 424L555 421L552 424L552 426L553 425L557 427L557 430L551 430L548 434L545 435L542 433L540 435L538 433L536 437L537 442L544 441L541 450L544 453L546 453L543 457L545 459L549 455L555 459L557 457L556 456L562 454L564 450L566 451L566 453L571 454L573 452L572 451L576 452L576 450L578 451L580 449L578 449L579 448L582 449L583 444L581 444L581 440L583 440L583 436L578 437L580 435L579 434L583 432L581 424zM583 439L583 439zM583 440L584 440z"
              id="贵州省"/>
        <path class="leaflet-interactive" stroke="#8B908F" stroke-opacity="0.5" stroke-width="1" stroke-linecap="butt"
              stroke-linejoin="bevel" fill="#eee" fill-opacity="0.5" fill-rule="evenodd"
              d="M549 431L547 427L546 429L543 430L541 428L543 426L541 426L542 423L538 423L538 425L536 427L535 426L534 431L530 435L531 442L528 445L528 443L522 446L515 436L513 432L514 431L512 429L510 431L507 428L508 425L504 421L502 423L502 427L500 425L500 417L498 417L498 421L496 419L495 422L497 425L495 427L493 425L492 426L493 433L496 432L497 435L497 445L495 445L496 447L488 455L489 456L487 460L489 462L487 464L488 465L492 463L498 463L496 465L498 468L497 469L499 472L503 472L500 480L505 481L509 486L513 486L515 484L517 486L516 487L520 489L521 484L519 479L521 477L524 478L527 475L531 478L534 475L538 477L541 474L542 476L546 474L545 473L548 470L551 471L554 468L556 468L557 465L555 463L550 464L547 460L543 460L545 455L545 453L542 450L544 441L542 440L538 442L536 439L538 433L540 435L542 433L546 435L549 432z"
              id="云南省"/>
        <path class="leaflet-interactive" stroke="#8B908F" stroke-opacity="0.5" stroke-width="1" stroke-linecap="butt"
              stroke-linejoin="bevel" fill="#eee" fill-opacity="0.5" fill-rule="evenodd"
              d="M424 351L415 348L405 348L397 350L394 355L393 354L391 356L388 354L379 359L370 358L369 355L365 355L365 357L363 357L361 360L349 358L349 360L347 362L346 361L345 366L343 368L339 368L335 372L335 376L340 383L339 388L337 388L336 385L333 386L333 390L336 392L336 398L339 401L342 400L347 405L348 404L352 406L356 410L358 406L363 407L375 418L377 416L380 417L379 418L384 423L387 422L389 426L392 425L394 429L396 427L396 429L400 427L403 430L411 430L413 428L417 428L416 433L418 435L425 426L433 428L435 430L437 428L439 432L443 434L444 439L455 438L461 432L466 431L469 429L469 427L472 426L476 426L483 430L486 428L485 427L487 423L492 427L492 425L496 427L496 419L498 421L498 417L500 417L498 408L499 407L497 400L495 398L498 397L494 393L492 387L485 386L486 389L485 388L484 391L480 391L481 394L477 392L476 395L474 393L471 394L469 392L470 389L467 389L468 388L463 385L455 387L450 384L444 384L439 381L433 381L429 379L423 372L425 370L425 363L423 363L422 360L425 354L421 352L424 351z"
              id="西藏自治区"/>
        <path class="leaflet-interactive" stroke="#8B908F" stroke-opacity="0.5" stroke-width="1" stroke-linecap="butt"
              stroke-linejoin="bevel" fill="#eee" fill-opacity="0.5" fill-rule="evenodd"
              d="M590 366L589 363L592 356L590 342L594 336L591 330L595 326L595 322L597 319L596 316L592 319L588 317L589 318L587 320L586 319L587 320L580 327L580 332L578 332L576 336L572 336L569 333L565 337L565 343L572 347L573 346L576 349L576 359L569 359L569 363L559 361L560 364L558 366L561 369L559 369L560 371L558 373L560 376L554 376L553 379L555 380L553 383L551 383L555 383L557 385L563 384L564 387L567 386L567 388L568 387L571 390L574 389L584 394L583 387L585 385L589 385L586 382L585 383L585 381L583 380L592 379L593 381L595 379L590 366zM595 377L595 377zM556 384L556 384z"
              id="陕西省"/>
        <path class="leaflet-interactive" stroke="#8B908F" stroke-opacity="0.5" stroke-width="1" stroke-linecap="butt"
              stroke-linejoin="bevel" fill="#eee" fill-opacity="0.5" fill-rule="evenodd"
              d="M559 355L558 360L554 358L555 357L553 357L550 354L550 344L543 338L538 337L536 334L534 334L534 328L538 326L541 321L539 317L534 318L531 321L526 319L523 320L523 323L521 325L514 322L513 318L511 318L505 313L502 313L507 309L509 305L508 302L500 302L500 304L499 303L496 305L496 303L493 305L493 302L490 300L488 296L488 290L484 281L476 283L474 285L476 288L475 291L469 294L466 293L458 300L456 304L450 305L448 315L445 319L446 322L448 320L452 320L452 323L456 323L458 325L461 324L463 328L472 328L476 331L478 329L480 330L480 328L483 325L483 320L492 324L493 321L495 323L497 321L500 322L499 323L506 329L508 330L508 327L511 330L512 329L516 334L524 336L531 352L522 364L522 366L525 369L521 371L514 368L513 369L516 375L521 377L522 376L522 380L525 379L524 378L526 378L527 376L524 372L526 372L529 369L532 371L533 374L540 375L542 379L541 382L544 385L550 385L551 382L554 382L554 376L560 376L559 369L561 369L558 366L560 364L559 361L568 363L570 362L568 360L569 359L575 360L575 354L577 352L576 348L567 344L564 341L560 341L560 345L558 347L559 350L563 352L562 355L560 355zM555 357L556 357zM529 349L530 349zM556 358L556 358zM559 355L559 355z"
              id="甘肃省"/>
        <path class="leaflet-interactive" stroke="#8B908F" stroke-opacity="0.5" stroke-width="1" stroke-linecap="butt"
              stroke-linejoin="bevel" fill="#eee" fill-opacity="0.5" fill-rule="evenodd"
              d="M529 349L529 345L523 335L522 336L520 334L516 334L514 330L513 331L508 327L508 329L506 329L498 321L496 321L495 323L493 321L491 324L486 320L482 320L483 325L480 328L480 330L478 329L476 331L472 328L463 329L461 324L458 325L456 323L452 323L452 321L449 320L437 325L432 325L427 328L428 330L431 329L430 335L437 341L432 344L432 346L435 347L435 350L433 352L427 350L425 352L421 352L425 354L422 359L422 361L425 364L425 370L423 372L429 379L433 381L436 380L444 384L453 385L455 387L463 385L470 390L469 392L471 394L474 393L476 395L477 392L481 394L480 391L481 392L484 391L485 388L486 389L485 386L487 386L486 381L488 378L486 374L489 370L494 372L497 379L501 383L504 384L506 382L508 384L507 385L510 384L512 386L517 384L516 379L519 379L520 381L521 377L517 375L513 370L515 368L520 371L525 369L522 366L522 364L526 360L525 359L529 357L528 355L531 352L530 349z"
              id="青海省"/>
        <path class="leaflet-interactive" stroke="#8B908F" stroke-opacity="0.5" stroke-width="1" stroke-linecap="butt"
              stroke-linejoin="bevel" fill="#eee" fill-opacity="0.5" fill-rule="evenodd"
              d="M565 341L565 337L568 334L565 331L559 329L563 322L561 318L557 319L557 321L556 320L554 324L554 332L552 335L541 338L543 338L550 345L549 346L551 350L551 355L553 355L553 357L555 357L558 360L558 355L562 355L563 352L559 349L559 343L561 341L565 341zM555 357L555 358zM556 358L556 358z"
              id="宁夏回族自治区"/>
        <path class="leaflet-interactive" stroke="#8B908F" stroke-opacity="0.5" stroke-width="1" stroke-linecap="butt"
              stroke-linejoin="bevel" fill="#eee" fill-opacity="0.5" fill-rule="evenodd"
              d="M478 282L474 277L471 268L469 268L470 265L466 265L454 257L444 257L438 255L437 256L435 254L434 255L432 250L435 245L433 242L435 238L434 234L432 234L428 225L422 221L419 222L415 220L415 218L410 214L411 213L408 212L408 207L406 209L401 208L401 212L396 217L394 216L390 220L392 229L390 233L386 235L377 234L370 231L364 249L364 251L367 253L366 255L361 254L360 252L358 254L351 256L350 255L345 258L349 261L349 267L352 274L352 277L349 279L350 280L347 283L348 288L343 292L331 297L330 299L328 299L328 301L321 301L316 308L313 307L311 309L311 305L307 307L304 306L305 308L303 308L300 311L299 310L296 313L297 316L294 317L295 322L296 321L295 324L298 327L299 325L304 327L306 335L305 336L307 338L305 340L301 340L312 345L314 347L313 352L316 354L317 353L325 358L330 357L330 361L332 363L331 365L337 369L345 367L346 362L349 360L349 358L361 360L366 355L368 355L371 358L376 359L388 354L390 356L393 355L398 350L402 350L405 348L415 348L425 352L427 350L433 352L435 348L432 345L437 341L431 335L431 329L428 330L427 327L445 322L450 305L456 304L460 298L466 293L468 293L469 295L471 292L473 292L476 288L474 285L476 283z"
              id="新疆维吾尔自治区"/>
        <path class="leaflet-interactive" stroke="#8B908F" stroke-opacity="0.5" stroke-width="1" stroke-linecap="butt"
              stroke-linejoin="bevel" fill="#eee" fill-opacity="0.5" fill-rule="evenodd"
              d="M671 478L674 483L675 477L679 472L683 460L683 454L677 454L672 460L670 466L668 467L670 477zM704 447L704 447zM695 449L696 448L695 449zM665 468L664 469zM697 447L697 447zM664 467L663 468L664 467zM664 470L664 470zM664 467L664 467zM684 450L684 450zM679 476L680 476zM680 481L680 481zM684 451L685 451zM663 471L663 471zM670 479L671 479z"
              id="台湾省"/>
        <path class="leaflet-interactive" stroke="#8B908F" stroke-opacity="0.5" stroke-width="1" stroke-linecap="butt"
              stroke-linejoin="bevel" fill="#eee" fill-opacity="0.5" fill-rule="evenodd"
              d="M620 477L620 479L618 479L619 480L623 478L620 477zM620 480L621 480zM622 478L622 478zM622 478L622 478zM622 478L622 478zM622 479L622 479zM622 478L622 478zM622 479L622 479zM622 479L622 479z"
              id="香港特别行政区"/>
        <path class="leaflet-interactive" stroke="#8B908F" stroke-opacity="0.5" stroke-width="1" stroke-linecap="butt"
              stroke-linejoin="bevel" fill="#eee" fill-opacity="0.5" fill-rule="evenodd"
              d="M616 481L616 480zM616 480L616 480z" id="澳门特别行政区"/>
        <path class="leaflet-interactive" stroke="#8B908F" stroke-opacity="0.5" stroke-width="1" stroke-linecap="butt"
              stroke-linejoin="bevel" fill="#eee" fill-opacity="0.5" fill-rule="evenodd"
              d="M688 469L690 459L688 469zM677 492L683 484L677 492zM663 516L668 507L663 516zM660 541L660 532L660 541zM657 573L656 575L659 566L658 569zM632 606L637 599L632 606zM606 635L602 636L610 633L607 634zM573 614L574 615L573 607L573 614zM588 571L590 568L590 564L589 570zM586 539L582 531L585 537z"
              id="100000_JD"/>
    </g>
</svg>